<svg
    xmlns="http://www.w3.org/2000/svg"
    xmlns:xlink="http://www.w3.org/1999/xlink"
>
    <defs>
        <symbol id="dart-maul">
            <circle cx="30.9" cy="30.9" r="30.9" fill="#9f82bb"/>
            <path fill="#4c4a4f" fill-rule="evenodd" d="M52.594 52.918a30.895 30.895 0 0 1-43.666-.292 9.206 9.206 0 0 1 4.036-4.832 19.806 19.806 0 0 1 4.075-2.321c-2.197-7.553 3.778-11.267 6.063-12.335 0 3.487 3.266 1.173 7.318 1.217 3.336.036 9.932 3.395 9.932-1.035 3.67 1.086 7.67 8.079 4.917 12.376a17.613 17.613 0 0 1 3.182 2.002 10.193 10.193 0 0 1 4.143 5.22z"/>
            <path fill="#302e33" fill-rule="evenodd" d="m23.476 38.689 15.689.09v3.438l-.008.053a9.467 9.467 0 0 1-.401 1.853c-1.15 3.788-4.286 5.592-7.962 7.421-2.892-1.498-6.98-4.197-7.305-8.971l-.013-.06v-.2a6.778 6.778 0 0 1-.005-.206c0 .035.003.07.005.105z"/>
            <path fill-rule="evenodd" d="M39.161 38.66v3.58a3.812 3.812 0 0 1-.128.83 12.652 12.652 0 0 1-.544 1.812 9.516 9.516 0 0 1-15.014-5.97z" opacity=".22"/>
            <path fill="#302e33" fill-rule="evenodd" d="M31.129 8.432c21.281 0 12.987 35.266 0 35.266-12.266 0-21.281-35.266 0-35.266zM19.797 49.172c.03.038 10.419 13.483 22.63-.201-1.475 4.053-7.836 7.27-11.476 7.26-6.949-.02-10.796-5.6-11.154-7.06z"/>
            <path fill="#302e33" fill-rule="evenodd" d="M18.365 24.046c-3.07 1.339-.46 7.686 1.472 7.658a31.972 31.972 0 0 1-1.472-7.659zM44.14 24.045c3.07 1.339.46 7.687-1.471 7.658a31.993 31.993 0 0 0 1.471-7.658z"/>
            <path fill="#ed4b39" fill-rule="evenodd" d="M31.506 30.646c-.126.127.21.14-.413.122l-1.07-.635c.161-.661.843-.98.983-1.654l-.848-.757c.713-1.03 1.222-.454.671-2.3-.826-2.766 1.333-3.292-.833-7.724a19.262 19.262 0 0 1-1.48-4.804c-.907-4.26.695-3.813 1.38-4.42a13.506 13.506 0 0 0-3.991.836 10.108 10.108 0 0 0-2.965 1.676c-.027.542.902.353 1.262.069l2.781-1.436c-.601 1.393-.983 1.89-.22 3.505.672 1.423-.223 2.328-1.157 2.923-2.28 1.45-6.34.878-2.488 3.96a4.708 4.708 0 0 1 3.103-2.265 2.45 2.45 0 0 1 2.495 2.637 5.583 5.583 0 0 0 .241 3.058l.477.667a12.545 12.545 0 0 0-1.108.769c.302.294.752.419 1.005.705.58.655.28 2.17-1.44 3.094-1.506.808-3.876 1.26-4.342 2.666.327.263.51.294.819.53.352.27.413.46.775.694.417-.378 1.904-2.393 3.406-2.385.152.762-1.481 1.322-2.382 2.884-.26.451-.373.818-.758 1.033-.52-.26-1.044-1.654-2.259-2.204-.621.564-.55.659-.092 1.28.629.853 2.42 3.551 2.882 3.942 1.055-1.192.181-.66 1.993-2.123.755.39 1.3 1.56 2.77 1.728v.151c3.055-.317 2.619-1.14 3.872-1.872 1.627 1.325 1.029 1.073 1.993 2.129a41.062 41.062 0 0 0 2.843-3.874c.154-.219.424-.479.425-.701l-.478-.708c-.03.016-.075.012-.09.05-.013.038-.068.04-.087.051l-1.06.896a9.818 9.818 0 0 1-1.022 1.229c-.608-.36-.556-1.066-1.518-2.022-.34-.338-.595-.595-.934-.877-.318-.265-.734-.44-.684-.983 1.485-.003 2.963 2.077 3.402 2.418l1.6-1.266c-.433-1.97-5.187-1.962-5.914-4.34-.445-1.46.468-1.614.87-1.897.236-.167.129-.082.26-.228-.275-.279-.663-.507-.973-.767.242-.94.746-.1.645-2.96-.06-1.704-.441-1.675.787-2.686.867-.712 1.343-1.038 2.8-.33.973.471 1.176 1.112 1.918 1.835.703-.272 2.495-1.876 1.12-2.591-.621-.323-2.463-.577-3.642-1.38-1.115-.758-1.655-1.727-.993-3.01a3.275 3.275 0 0 0-.38-3.399 10.416 10.416 0 0 1 1.553.785c.254.137 2.87 1.9 2.509.76a11.9 11.9 0 0 0-2.893-1.762 16.65 16.65 0 0 0-3.882-.864c.449.303 1.387.554 1.469 1.897a20.005 20.005 0 0 1-1.79 7.45c-2.113 4.35.07 4.37-.827 7.744-.397 1.495.036 1.282.723 2.127-.278.407-.537.468-.828.767.145.712.813 1.013.958 1.644a2.06 2.06 0 0 1-.95.514zm-9.458 1.08a11.89 11.89 0 0 1-2.191-2.6c-.504-.92-.672-3.187-.006-3.82.865.936 1.198 2.31 2.232 3.078 1.249.93 1.439 1.578-.035 3.342zm18.373.003c-1.612-2.258-1.154-2.385.01-3.343 1.077-.886 1.355-2.245 2-2.837.286-.262.063-.12.38-.225 1.42 2.882-1.773 6.245-2.39 6.405zM30.995 41.2l-.295 1.21c-.967-1.055-.082-1.605-.022-2.41.066-.88-.933-1.904.372-2.294l.244-.047c1.422.2.515 1.43.514 2.218-.001 1.122.81.784.113 2.433l-.402-1.203-.338-.086-.186.18zm-.751-3.961c.796.02 3.17-.12 3.55.227.76.69-.233 1.905-.254 2.638-.032 1.063.938 1.484.594 2.58-.455 1.003-1.57.787-2.964.898-.312.02-.668.038-.98.045-3.09-.203-1.153-2.529-1.218-3.525-.017-.688-.515-1.127-.51-1.862.008-1.054.618-1.002 1.782-1.001zm-1.906-13.683a1.086 1.086 0 0 1-.597.835c-.938.523-2.797-.776-3.392-1.165-2.163-1.415-2.635 1.548-3.324 2.259-1.182-.679-.603-2.093-.843-3.446-.179-1.013-.825-1.888-1.005-3.19-.353-2.54 1.06-4.828 2.197-6.277l.29.287c-.611.696-3.012 3.378-1.208 4.484 1.531.939-.03 2.508 1.105 3.47.383.326.353.231 1.018.296.968.095 1.074.213 2.38-1.21.45-.49.573-1.035 1.114-1.246.725.393.818 1.65.89 2.495.128 1.471-.237 1.508.775 1.913.575.23.386.125.6.495zm13.426-9.33c-.583-.79-1.459-.92-.708-1.538 1.243 1.534 2.592 3.644 2.267 6.244-.175 1.405-.825 2.09-.997 3.236-.237 1.58.427 2.388-.842 3.346-.604-.586-1.15-3.68-3.391-2.235-4.206 2.713-3.915.096-3.89.061.336-.23.978-.386 1.161-.66.377-.558-.181-3.42 1.071-4.042.533.201 1.536 1.983 2.398 2.395a2.55 2.55 0 0 0 2.085-.241c1.177-1.016-.422-2.551 1.12-3.472 1.18-.705.363-2.229-.274-3.093zM31.257 32.45l.169-.011c.665-.268.868-.768 1.555-1.143a2.136 2.136 0 0 1 2.036 1.467c-.093.439-2.144 1.515-3.286 2.476-.398.336-.066.246-.61.28a15.244 15.244 0 0 0-1.384-1.069c-1.332-.814-2.876-1.445-1.945-2.347a2.993 2.993 0 0 1 1.735-.858c.553.396 1.11 1.095 1.73 1.205z"/>
            <path fill="#e6e6e6" fill-rule="evenodd" d="M33.047 11.743q.005.067.005.137a1.8 1.8 0 1 1-3.6 0q0-.07.005-.137h-.005c.245-2.24 1.24-3.932 1.86-5.898.58 1.966 1.46 3.52 1.74 5.898zM41.113 12.395a2.466 2.466 0 0 1-.024.118 1.587 1.587 0 1 1-3.086-.744.657.657 0 0 0 .028-.117 10.77 10.77 0 0 0 2.814-4.672 8.067 8.067 0 0 1 .272 5.416zM21.326 12.404c.006.04.014.08.024.119a1.587 1.587 0 1 0 3.086-.745.649.649 0 0 1-.029-.117 10.771 10.771 0 0 1-2.813-4.672 8.067 8.067 0 0 0-.273 5.416z"/>
        </symbol>
        <symbol id="default">
            <circle cx="30.9" cy="30.9" r="30.9" fill="#DBD7D2"/>
            <path fill="#4c4a4f" fill-rule="evenodd" d="M53.478 51.993A30.814 30.814 0 0 1 30.9 61.8a31.206 31.206 0 0 1-3.837-.237A34.069 34.069 0 0 1 15.9 57.919a31.032 31.032 0 0 1-7.856-6.225l1.283-3.1 13.925-6.212c0 4.535 1.31 10.02 7.439 10.113 7.57.114 8.47-5.475 8.47-10.15l12.79 6.282z"/>
            <path fill-rule="evenodd" d="M.694 74.664v-.762H66.5v.762H.694zm9.401-40.977v2.237h2.215v-2.237zm0 3v2.24h2.215v-2.24zm0 3.002v1.86h2.215v-1.86zm0 2.622v2.24h2.215v-2.24zm0 3.002v2.237h2.215v-2.237zm0 3v2.24h2.215v-2.24zm0 3.002v1.956h2.215v-1.956zm0 2.718v2.24h2.215v-2.24zm0 3.003v2.237h2.215v-2.237zm0 2.999v2.24h2.215v-2.24zm0 3.002v1.86h2.215v-1.86zm0 2.623v2.229h-.753v-2.23H.694v-.762h8.648v-1.86H.694v-.762h8.648v-2.24H.694v-.762h8.648v-2.237H.694v-.763h8.648v-2.24H.694v-.762h8.648v-1.956H.694v-.762h8.648v-2.24H.694v-.763h8.648v-2.237H.694v-.762h8.648v-2.24H.694v-.762h8.648v-1.86H.694v-.763h8.648v-2.24H.694v-.762h8.648v-2.237H.694v-.763H66.5v.763h-12.92v2.237H66.5v.762h-12.92v2.24H66.5v.763h-12.92v1.86H66.5v.762h-12.92v2.24H66.5v.762h-12.92v2.237H66.5v.763h-12.92v2.24H66.5v.762h-12.92v1.956H66.5v.762h-12.92v2.24H66.5v.763h-12.92v2.237H66.5v.762h-12.92v2.24H66.5v.762h-12.92v1.86H66.5v.762h-12.92v2.23h-.755v-2.23h-2.214v2.23h-.755v-2.23h-2.211v2.23h-.754v-2.23h-2.215v2.23h-.754v-2.23h-1.838v2.23h-.754v-2.23h-2.215v2.23h-.754v-2.23H36.15v2.23h-.754v-2.23h-2.215v2.23h-.754v-2.23h-1.933v2.23h-.754v-2.23h-2.215v2.23h-.753v-2.23H24.56v2.23h-.754v-2.23H21.59v2.23h-.754v-2.23H19v2.23h-.754v-2.23H16.03v2.23h-.754v-2.23h-2.212v2.23h-.754v-2.23zm24.627-35.738h31.78v.762H.693v-.762h34.028zm18.104 3.765h-2.214v2.237h2.214v-2.237zm-2.969 0h-2.211v2.237h2.211v-2.237zm-2.965 0h-2.215v2.237h2.215v-2.237zm-2.969 0h-1.838v2.237h1.838v-2.237zm-2.592 0h-2.215v2.237h2.215v-2.237zm-2.969 0H36.15v2.237h2.212v-2.237zm-2.966 0h-2.215v2.237h2.215v-2.237zm-2.969 0h-1.933v2.237h1.933v-2.237zm-2.687 0h-2.215v2.237h2.216v-2.237zm-2.969 0H24.56v2.237h2.212v-2.237zm-2.965 0H21.59v2.237h2.215v-2.237zm-2.969 0H19v2.237h1.838v-2.237zm-2.592 0H16.03v2.237h2.215v-2.237zm-2.97 0h-2.21v2.237h2.21v-2.237zm37.551 3h-2.214v2.24h2.214v-2.24zm-2.969 0h-2.211v2.24h2.211v-2.24zm-2.965 0h-2.215v2.24h2.215v-2.24zm-2.969 0h-1.838v2.24h1.838v-2.24zm-2.592 0h-2.215v2.24h2.215v-2.24zm-2.969 0H36.15v2.24h2.212v-2.24zm-2.966 0h-2.215v2.24h2.215v-2.24zm-2.969 0h-1.933v2.24h1.933v-2.24zm-2.687 0h-2.215v2.24h2.216v-2.24zm-2.969 0H24.56v2.24h2.212v-2.24zm-2.965 0H21.59v2.24h2.215v-2.24zm-2.969 0H19v2.24h1.838v-2.24zm-2.592 0H16.03v2.24h2.215v-2.24zm-2.97 0h-2.21v2.24h2.21v-2.24zm37.551 3.002h-2.214v1.86h2.214v-1.86zm-2.969 0h-2.211v1.86h2.211v-1.86zm-2.965 0h-2.215v1.86h2.215v-1.86zm-2.969 0h-1.838v1.86h1.838v-1.86zm-2.592 0h-2.215v1.86h2.215v-1.86zm-2.969 0H36.15v1.86h2.212v-1.86zm-2.966 0h-2.215v1.86h2.215v-1.86zm-2.969 0h-1.933v1.86h1.933v-1.86zm-2.687 0h-2.215v1.86h2.216v-1.86zm-2.969 0H24.56v1.86h2.212v-1.86zm-2.965 0H21.59v1.86h2.215v-1.86zm-2.969 0H19v1.86h1.838v-1.86zm-2.592 0H16.03v1.86h2.215v-1.86zm-2.97 0h-2.21v1.86h2.21v-1.86zm37.551 2.622h-2.214v2.24h2.214v-2.24zm-2.969 0h-2.211v2.24h2.211v-2.24zm-2.965 0h-2.215v2.24h2.215v-2.24zm-2.969 0h-1.838v2.24h1.838v-2.24zm-2.592 0h-2.215v2.24h2.215v-2.24zm-2.969 0H36.15v2.24h2.212v-2.24zm-2.966 0h-2.215v2.24h2.215v-2.24zm-2.969 0h-1.933v2.24h1.933v-2.24zm-2.687 0h-2.215v2.24h2.216v-2.24zm-2.969 0H24.56v2.24h2.212v-2.24zm-2.965 0H21.59v2.24h2.215v-2.24zm-2.969 0H19v2.24h1.838v-2.24zm-2.592 0H16.03v2.24h2.215v-2.24zm-2.97 0h-2.21v2.24h2.21v-2.24zm37.551 3.002h-2.214v2.237h2.214v-2.237zm-2.969 0h-2.211v2.237h2.211v-2.237zm-2.965 0h-2.215v2.237h2.215v-2.237zm-2.969 0h-1.838v2.237h1.838v-2.237zm-2.592 0h-2.215v2.237h2.215v-2.237zm-2.969 0H36.15v2.237h2.212v-2.237zm-2.966 0h-2.215v2.237h2.215v-2.237zm-2.969 0h-1.933v2.237h1.933v-2.237zm-2.687 0h-2.215v2.237h2.216v-2.237zm-2.969 0H24.56v2.237h2.212v-2.237zm-2.965 0H21.59v2.237h2.215v-2.237zm-2.969 0H19v2.237h1.838v-2.237zm-2.592 0H16.03v2.237h2.215v-2.237zm-2.97 0h-2.21v2.237h2.21v-2.237zm37.551 3h-2.214v2.24h2.214v-2.24zm-2.969 0h-2.211v2.24h2.211v-2.24zm-2.965 0h-2.215v2.24h2.215v-2.24zm-2.969 0h-1.838v2.24h1.838v-2.24zm-2.592 0h-2.215v2.24h2.215v-2.24zm-2.969 0H36.15v2.24h2.212v-2.24zm-2.966 0h-2.215v2.24h2.215v-2.24zm-2.969 0h-1.933v2.24h1.933v-2.24zm-2.687 0h-2.215v2.24h2.216v-2.24zm-2.969 0H24.56v2.24h2.212v-2.24zm-2.965 0H21.59v2.24h2.215v-2.24zm-2.969 0H19v2.24h1.838v-2.24zm-2.592 0H16.03v2.24h2.215v-2.24zm-2.97 0h-2.21v2.24h2.21v-2.24zm37.551 3.002h-2.214v1.956h2.214v-1.956zm-2.969 0h-2.211v1.956h2.211v-1.956zm-2.965 0h-2.215v1.956h2.215v-1.956zm-2.969 0h-1.838v1.956h1.838v-1.956zm-2.592 0h-2.215v1.956h2.215v-1.956zm-2.969 0H36.15v1.956h2.212v-1.956zm-2.966 0h-2.215v1.956h2.215v-1.956zm-2.969 0h-1.933v1.956h1.933v-1.956zm-2.687 0h-2.215v1.956h2.216v-1.956zm-2.969 0H24.56v1.956h2.212v-1.956zm-2.965 0H21.59v1.956h2.215v-1.956zm-2.969 0H19v1.956h1.838v-1.956zm-2.592 0H16.03v1.956h2.215v-1.956zm-2.97 0h-2.21v1.956h2.21v-1.956zm37.551 2.718h-2.214v2.24h2.214v-2.24zm-2.969 0h-2.211v2.24h2.211v-2.24zm-2.965 0h-2.215v2.24h2.215v-2.24zm-2.969 0h-1.838v2.24h1.838v-2.24zm-2.592 0h-2.215v2.24h2.215v-2.24zm-2.969 0H36.15v2.24h2.212v-2.24zm-2.966 0h-2.215v2.24h2.215v-2.24zm-2.969 0h-1.933v2.24h1.933v-2.24zm-2.687 0h-2.215v2.24h2.216v-2.24zm-2.969 0H24.56v2.24h2.212v-2.24zm-2.965 0H21.59v2.24h2.215v-2.24zm-2.969 0H19v2.24h1.838v-2.24zm-2.592 0H16.03v2.24h2.215v-2.24zm-2.97 0h-2.21v2.24h2.21v-2.24zm37.551 3.003h-2.214v2.237h2.214v-2.237zm-2.969 0h-2.211v2.237h2.211v-2.237zm-2.965 0h-2.215v2.237h2.215v-2.237zm-2.969 0h-1.838v2.237h1.838v-2.237zm-2.592 0h-2.215v2.237h2.215v-2.237zm-2.969 0H36.15v2.237h2.212v-2.237zm-2.966 0h-2.215v2.237h2.215v-2.237zm-2.969 0h-1.933v2.237h1.933v-2.237zm-2.687 0h-2.215v2.237h2.216v-2.237zm-2.969 0H24.56v2.237h2.212v-2.237zm-2.965 0H21.59v2.237h2.215v-2.237zm-2.969 0H19v2.237h1.838v-2.237zm-2.592 0H16.03v2.237h2.215v-2.237zm-2.97 0h-2.21v2.237h2.21v-2.237zm37.551 2.999h-2.214v2.24h2.214v-2.24zm-2.969 0h-2.211v2.24h2.211v-2.24zm-2.965 0h-2.215v2.24h2.215v-2.24zm-2.969 0h-1.838v2.24h1.838v-2.24zm-2.592 0h-2.215v2.24h2.215v-2.24zm-2.969 0H36.15v2.24h2.212v-2.24zm-2.966 0h-2.215v2.24h2.215v-2.24zm-2.969 0h-1.933v2.24h1.933v-2.24zm-2.687 0h-2.215v2.24h2.216v-2.24zm-2.969 0H24.56v2.24h2.212v-2.24zm-2.965 0H21.59v2.24h2.215v-2.24zm-2.969 0H19v2.24h1.838v-2.24zm-2.592 0H16.03v2.24h2.215v-2.24zm-2.97 0h-2.21v2.24h2.21v-2.24zm37.551 3.002h-2.214v1.86h2.214v-1.86zm-2.969 0h-2.211v1.86h2.211v-1.86zm-2.965 0h-2.215v1.86h2.215v-1.86zm-2.969 0h-1.838v1.86h1.838v-1.86zm-2.592 0h-2.215v1.86h2.215v-1.86zm-2.969 0H36.15v1.86h2.212v-1.86zm-2.966 0h-2.215v1.86h2.215v-1.86zm-2.969 0h-1.933v1.86h1.933v-1.86zm-2.687 0h-2.215v1.86h2.216v-1.86zm-2.969 0H24.56v1.86h2.212v-1.86zm-2.965 0H21.59v1.86h2.215v-1.86zm-2.969 0H19v1.86h1.838v-1.86zm-2.592 0H16.03v1.86h2.215v-1.86zm-2.97 0h-2.21v1.86h2.21v-1.86zM34.723 67.9h31.78v.762H.693V67.9h34.028zm0 2.999h31.78v.763H.693v-.763h34.028z" opacity=".18" />
            <path fill="#4c4a4f" fill-rule="evenodd" d="M23.255 38.68l15.907.121v12.918l-15.907-.121V38.68z" />
            <path fill="#4c4a4f" fill-rule="evenodd" d="M39.162 60.682a31.097 31.097 0 0 1-15.907.164v-13.26c3.922 4.713 11.848 4.664 15.907.121z" />
            <path fill-rule="evenodd" d="M39.165 43.46v2.258c0 .161.002 1.46-.003 1.467-4.75 3.472-14.539 1.365-15.907-3.124z" opacity=".11" />
            <path fill="#4c4a4f" fill-rule="evenodd" d="M31.129 8.432c21.281 0 12.987 35.266 0 35.266-12.266 0-21.281-35.266 0-35.266z"/>
            <path fill="#4c4a4f" fill-rule="evenodd" d="M18.365 24.046c-3.07 1.339-.46 7.686 1.472 7.658a31.972 31.972 0 01-1.472-7.659zM44.14 24.045c3.07 1.339.46 7.687-1.471 7.658a31.993 31.993 0 001.471-7.658z"/>
            <path fill="#4c4a4f" fill-rule="evenodd" d="M23.258 53.239l-2.404-2.236-4.803 2.358 7.205-13.65.002 13.528zM39.157 53.239l2.404-2.237 4.804 2.359-7.206-13.651-.002 13.529z"/>
            <path fill="#4c4a4f" fill-rule="evenodd" d="M18.368 23.94C15.536 18.98 14.68 15.73 16.1 13.29c2.049-3.52 6.571-3.089 6.965-3.918 4.025-8.479 24.839-2.048 23.97 11.09a14.806 14.806 0 0 0-1.522-2.486s-.075 4.991-1.437 6.957c-1.663-2.874-6.427-5.747-6.427-5.747s1.285 4.31 2.117 5.218c-1.074-.094-13.159-3.479-16.26-13.537-4.007 2.269-5.29 9.366-5.14 13.072z"/>
        </symbol>
        <symbol id="beard-man">
            <circle cx="30.9" cy="30.9" r="30.9" fill="#3dbc93"/>
            <path fill="#e9573e" fill-rule="evenodd" d="M53.478 51.993A30.814 30.814 0 0 1 30.9 61.8a31.206 31.206 0 0 1-3.837-.237A34.069 34.069 0 0 1 15.9 57.919a31.032 31.032 0 0 1-7.856-6.225l1.283-3.1 13.925-6.212c0 4.535 1.31 10.02 7.439 10.113 7.57.114 8.47-5.475 8.47-10.15l12.79 6.282z"/>
            <path fill-rule="evenodd" d="M.694 74.664v-.762H66.5v.762H.694zm9.401-40.977v2.237h2.215v-2.237zm0 3v2.24h2.215v-2.24zm0 3.002v1.86h2.215v-1.86zm0 2.622v2.24h2.215v-2.24zm0 3.002v2.237h2.215v-2.237zm0 3v2.24h2.215v-2.24zm0 3.002v1.956h2.215v-1.956zm0 2.718v2.24h2.215v-2.24zm0 3.003v2.237h2.215v-2.237zm0 2.999v2.24h2.215v-2.24zm0 3.002v1.86h2.215v-1.86zm0 2.623v2.229h-.753v-2.23H.694v-.762h8.648v-1.86H.694v-.762h8.648v-2.24H.694v-.762h8.648v-2.237H.694v-.763h8.648v-2.24H.694v-.762h8.648v-1.956H.694v-.762h8.648v-2.24H.694v-.763h8.648v-2.237H.694v-.762h8.648v-2.24H.694v-.762h8.648v-1.86H.694v-.763h8.648v-2.24H.694v-.762h8.648v-2.237H.694v-.763H66.5v.763h-12.92v2.237H66.5v.762h-12.92v2.24H66.5v.763h-12.92v1.86H66.5v.762h-12.92v2.24H66.5v.762h-12.92v2.237H66.5v.763h-12.92v2.24H66.5v.762h-12.92v1.956H66.5v.762h-12.92v2.24H66.5v.763h-12.92v2.237H66.5v.762h-12.92v2.24H66.5v.762h-12.92v1.86H66.5v.762h-12.92v2.23h-.755v-2.23h-2.214v2.23h-.755v-2.23h-2.211v2.23h-.754v-2.23h-2.215v2.23h-.754v-2.23h-1.838v2.23h-.754v-2.23h-2.215v2.23h-.754v-2.23H36.15v2.23h-.754v-2.23h-2.215v2.23h-.754v-2.23h-1.933v2.23h-.754v-2.23h-2.215v2.23h-.753v-2.23H24.56v2.23h-.754v-2.23H21.59v2.23h-.754v-2.23H19v2.23h-.754v-2.23H16.03v2.23h-.754v-2.23h-2.212v2.23h-.754v-2.23zm24.627-35.738h31.78v.762H.693v-.762h34.028zm18.104 3.765h-2.214v2.237h2.214v-2.237zm-2.969 0h-2.211v2.237h2.211v-2.237zm-2.965 0h-2.215v2.237h2.215v-2.237zm-2.969 0h-1.838v2.237h1.838v-2.237zm-2.592 0h-2.215v2.237h2.215v-2.237zm-2.969 0H36.15v2.237h2.212v-2.237zm-2.966 0h-2.215v2.237h2.215v-2.237zm-2.969 0h-1.933v2.237h1.933v-2.237zm-2.687 0h-2.215v2.237h2.216v-2.237zm-2.969 0H24.56v2.237h2.212v-2.237zm-2.965 0H21.59v2.237h2.215v-2.237zm-2.969 0H19v2.237h1.838v-2.237zm-2.592 0H16.03v2.237h2.215v-2.237zm-2.97 0h-2.21v2.237h2.21v-2.237zm37.551 3h-2.214v2.24h2.214v-2.24zm-2.969 0h-2.211v2.24h2.211v-2.24zm-2.965 0h-2.215v2.24h2.215v-2.24zm-2.969 0h-1.838v2.24h1.838v-2.24zm-2.592 0h-2.215v2.24h2.215v-2.24zm-2.969 0H36.15v2.24h2.212v-2.24zm-2.966 0h-2.215v2.24h2.215v-2.24zm-2.969 0h-1.933v2.24h1.933v-2.24zm-2.687 0h-2.215v2.24h2.216v-2.24zm-2.969 0H24.56v2.24h2.212v-2.24zm-2.965 0H21.59v2.24h2.215v-2.24zm-2.969 0H19v2.24h1.838v-2.24zm-2.592 0H16.03v2.24h2.215v-2.24zm-2.97 0h-2.21v2.24h2.21v-2.24zm37.551 3.002h-2.214v1.86h2.214v-1.86zm-2.969 0h-2.211v1.86h2.211v-1.86zm-2.965 0h-2.215v1.86h2.215v-1.86zm-2.969 0h-1.838v1.86h1.838v-1.86zm-2.592 0h-2.215v1.86h2.215v-1.86zm-2.969 0H36.15v1.86h2.212v-1.86zm-2.966 0h-2.215v1.86h2.215v-1.86zm-2.969 0h-1.933v1.86h1.933v-1.86zm-2.687 0h-2.215v1.86h2.216v-1.86zm-2.969 0H24.56v1.86h2.212v-1.86zm-2.965 0H21.59v1.86h2.215v-1.86zm-2.969 0H19v1.86h1.838v-1.86zm-2.592 0H16.03v1.86h2.215v-1.86zm-2.97 0h-2.21v1.86h2.21v-1.86zm37.551 2.622h-2.214v2.24h2.214v-2.24zm-2.969 0h-2.211v2.24h2.211v-2.24zm-2.965 0h-2.215v2.24h2.215v-2.24zm-2.969 0h-1.838v2.24h1.838v-2.24zm-2.592 0h-2.215v2.24h2.215v-2.24zm-2.969 0H36.15v2.24h2.212v-2.24zm-2.966 0h-2.215v2.24h2.215v-2.24zm-2.969 0h-1.933v2.24h1.933v-2.24zm-2.687 0h-2.215v2.24h2.216v-2.24zm-2.969 0H24.56v2.24h2.212v-2.24zm-2.965 0H21.59v2.24h2.215v-2.24zm-2.969 0H19v2.24h1.838v-2.24zm-2.592 0H16.03v2.24h2.215v-2.24zm-2.97 0h-2.21v2.24h2.21v-2.24zm37.551 3.002h-2.214v2.237h2.214v-2.237zm-2.969 0h-2.211v2.237h2.211v-2.237zm-2.965 0h-2.215v2.237h2.215v-2.237zm-2.969 0h-1.838v2.237h1.838v-2.237zm-2.592 0h-2.215v2.237h2.215v-2.237zm-2.969 0H36.15v2.237h2.212v-2.237zm-2.966 0h-2.215v2.237h2.215v-2.237zm-2.969 0h-1.933v2.237h1.933v-2.237zm-2.687 0h-2.215v2.237h2.216v-2.237zm-2.969 0H24.56v2.237h2.212v-2.237zm-2.965 0H21.59v2.237h2.215v-2.237zm-2.969 0H19v2.237h1.838v-2.237zm-2.592 0H16.03v2.237h2.215v-2.237zm-2.97 0h-2.21v2.237h2.21v-2.237zm37.551 3h-2.214v2.24h2.214v-2.24zm-2.969 0h-2.211v2.24h2.211v-2.24zm-2.965 0h-2.215v2.24h2.215v-2.24zm-2.969 0h-1.838v2.24h1.838v-2.24zm-2.592 0h-2.215v2.24h2.215v-2.24zm-2.969 0H36.15v2.24h2.212v-2.24zm-2.966 0h-2.215v2.24h2.215v-2.24zm-2.969 0h-1.933v2.24h1.933v-2.24zm-2.687 0h-2.215v2.24h2.216v-2.24zm-2.969 0H24.56v2.24h2.212v-2.24zm-2.965 0H21.59v2.24h2.215v-2.24zm-2.969 0H19v2.24h1.838v-2.24zm-2.592 0H16.03v2.24h2.215v-2.24zm-2.97 0h-2.21v2.24h2.21v-2.24zm37.551 3.002h-2.214v1.956h2.214v-1.956zm-2.969 0h-2.211v1.956h2.211v-1.956zm-2.965 0h-2.215v1.956h2.215v-1.956zm-2.969 0h-1.838v1.956h1.838v-1.956zm-2.592 0h-2.215v1.956h2.215v-1.956zm-2.969 0H36.15v1.956h2.212v-1.956zm-2.966 0h-2.215v1.956h2.215v-1.956zm-2.969 0h-1.933v1.956h1.933v-1.956zm-2.687 0h-2.215v1.956h2.216v-1.956zm-2.969 0H24.56v1.956h2.212v-1.956zm-2.965 0H21.59v1.956h2.215v-1.956zm-2.969 0H19v1.956h1.838v-1.956zm-2.592 0H16.03v1.956h2.215v-1.956zm-2.97 0h-2.21v1.956h2.21v-1.956zm37.551 2.718h-2.214v2.24h2.214v-2.24zm-2.969 0h-2.211v2.24h2.211v-2.24zm-2.965 0h-2.215v2.24h2.215v-2.24zm-2.969 0h-1.838v2.24h1.838v-2.24zm-2.592 0h-2.215v2.24h2.215v-2.24zm-2.969 0H36.15v2.24h2.212v-2.24zm-2.966 0h-2.215v2.24h2.215v-2.24zm-2.969 0h-1.933v2.24h1.933v-2.24zm-2.687 0h-2.215v2.24h2.216v-2.24zm-2.969 0H24.56v2.24h2.212v-2.24zm-2.965 0H21.59v2.24h2.215v-2.24zm-2.969 0H19v2.24h1.838v-2.24zm-2.592 0H16.03v2.24h2.215v-2.24zm-2.97 0h-2.21v2.24h2.21v-2.24zm37.551 3.003h-2.214v2.237h2.214v-2.237zm-2.969 0h-2.211v2.237h2.211v-2.237zm-2.965 0h-2.215v2.237h2.215v-2.237zm-2.969 0h-1.838v2.237h1.838v-2.237zm-2.592 0h-2.215v2.237h2.215v-2.237zm-2.969 0H36.15v2.237h2.212v-2.237zm-2.966 0h-2.215v2.237h2.215v-2.237zm-2.969 0h-1.933v2.237h1.933v-2.237zm-2.687 0h-2.215v2.237h2.216v-2.237zm-2.969 0H24.56v2.237h2.212v-2.237zm-2.965 0H21.59v2.237h2.215v-2.237zm-2.969 0H19v2.237h1.838v-2.237zm-2.592 0H16.03v2.237h2.215v-2.237zm-2.97 0h-2.21v2.237h2.21v-2.237zm37.551 2.999h-2.214v2.24h2.214v-2.24zm-2.969 0h-2.211v2.24h2.211v-2.24zm-2.965 0h-2.215v2.24h2.215v-2.24zm-2.969 0h-1.838v2.24h1.838v-2.24zm-2.592 0h-2.215v2.24h2.215v-2.24zm-2.969 0H36.15v2.24h2.212v-2.24zm-2.966 0h-2.215v2.24h2.215v-2.24zm-2.969 0h-1.933v2.24h1.933v-2.24zm-2.687 0h-2.215v2.24h2.216v-2.24zm-2.969 0H24.56v2.24h2.212v-2.24zm-2.965 0H21.59v2.24h2.215v-2.24zm-2.969 0H19v2.24h1.838v-2.24zm-2.592 0H16.03v2.24h2.215v-2.24zm-2.97 0h-2.21v2.24h2.21v-2.24zm37.551 3.002h-2.214v1.86h2.214v-1.86zm-2.969 0h-2.211v1.86h2.211v-1.86zm-2.965 0h-2.215v1.86h2.215v-1.86zm-2.969 0h-1.838v1.86h1.838v-1.86zm-2.592 0h-2.215v1.86h2.215v-1.86zm-2.969 0H36.15v1.86h2.212v-1.86zm-2.966 0h-2.215v1.86h2.215v-1.86zm-2.969 0h-1.933v1.86h1.933v-1.86zm-2.687 0h-2.215v1.86h2.216v-1.86zm-2.969 0H24.56v1.86h2.212v-1.86zm-2.965 0H21.59v1.86h2.215v-1.86zm-2.969 0H19v1.86h1.838v-1.86zm-2.592 0H16.03v1.86h2.215v-1.86zm-2.97 0h-2.21v1.86h2.21v-1.86zM34.723 67.9h31.78v.762H.693V67.9h34.028zm0 2.999h31.78v.763H.693v-.763h34.028z" opacity=".18" />
            <path fill="#f9dca4" fill-rule="evenodd" d="M23.255 38.68l15.907.121v12.918l-15.907-.121V38.68z" />
            <path fill="#677079" fill-rule="evenodd" d="M39.162 60.682a31.097 31.097 0 0 1-15.907.164v-13.26c3.922 4.713 11.848 4.664 15.907.121z" />
            <path fill-rule="evenodd" d="M39.165 43.46v2.258c0 .161.002 1.46-.003 1.467-4.75 3.472-14.539 1.365-15.907-3.124z" opacity=".11" />
            <path fill="#ffe8be" fill-rule="evenodd" d="M31.129 8.432c21.281 0 12.987 35.266 0 35.266-12.266 0-21.281-35.266 0-35.266z"/>
            <path fill="#f9dca4" fill-rule="evenodd" d="M18.365 24.046c-3.07 1.339-.46 7.686 1.472 7.658a31.972 31.972 0 01-1.472-7.659zM44.14 24.045c3.07 1.339.46 7.687-1.471 7.658a31.993 31.993 0 001.471-7.658z"/>
            <path fill="#434955" fill-rule="evenodd" d="M23.258 53.239l-2.404-2.236-4.803 2.358 7.205-13.65.002 13.528zM39.157 53.239l2.404-2.237 4.804 2.359-7.206-13.651-.002 13.529z"/>
            <path fill="#60350a" fill-rule="evenodd" d="M18.368 23.94C15.536 18.98 14.68 15.73 16.1 13.29c2.049-3.52 6.571-3.089 6.965-3.918 4.025-8.479 24.839-2.048 23.97 11.09a14.806 14.806 0 0 0-1.522-2.486s-.075 4.991-1.437 6.957c-1.663-2.874-6.427-5.747-6.427-5.747s1.285 4.31 2.117 5.218c-1.074-.094-13.159-3.479-16.26-13.537-4.007 2.269-5.29 9.366-5.14 13.072z"/>
            <path fill="#60350a" fill-rule="evenodd" d="M31.15 46.543c-2.66.022-15.053.136-12.796-22.713 0 0 .835 6.584 2.96 9.456a2.566 2.566 0 0 0 3.822.746c1.16-.835 1.397-2.407 2.834-2.917a2.68 2.68 0 0 1 3.24.782 2.633 2.633 0 0 1 3.213-.782c1.437.51 1.675 2.082 2.834 2.917a2.566 2.566 0 0 0 3.821-.746c2.126-2.873 2.962-9.456 2.962-9.456 2.256 22.85-10.23 22.735-12.89 22.713z"/>
            <path fill="#362008" fill-rule="evenodd" d="M23.94 35.855s5.64 1.699 7.233-3.5l.023-.075.022.075c1.592 5.199 7.234 3.5 7.234 3.5-2.977 2.458-5.176-.206-7.285-.154-2.273.056-4.335 2.542-7.228.154z"/>
        </symbol>
        <symbol id="it-specialist">
            <circle cx="30.9" cy="30.9" r="30.9" fill="#ffc200"/>
            <path fill="#677079" fill-rule="evenodd" d="M52.587 52.908a30.895 30.895 0 0 1-43.667-.291 9.206 9.206 0 0 1 4.037-4.832 19.799 19.799 0 0 1 4.075-2.322c-2.198-7.553 3.777-11.266 6.063-12.335 0 3.487 3.265 1.173 7.317 1.217 3.336.037 9.933 3.395 9.933-1.035 3.67 1.086 7.67 8.08 4.917 12.377a17.604 17.604 0 0 1 3.181 2.002 10.192 10.192 0 0 1 4.144 5.22z"/>
            <path fill="#f9dca4" fill-rule="evenodd" d="m24.032 38.68 14.92.09v3.437l-.007.053a2.784 2.784 0 0 1-.07.462l-.05.341-.03.071c-.966 5.074-5.193 7.035-7.803 8.401-2.75-1.498-6.638-4.197-6.947-8.972l-.013-.059v-.2a8.897 8.897 0 0 1-.004-.207c0 .036.003.07.004.106z"/>
            <path fill-rule="evenodd" d="M38.953 38.617v4.005a7.167 7.167 0 0 1-.095 1.108 6.01 6.01 0 0 1-.38 1.321c-5.184 3.915-13.444.704-14.763-5.983z" opacity=".11"/>
            <path fill="#f9dca4" fill-rule="evenodd" d="M18.104 25.235c-4.94 1.27-.74 7.29 2.367 7.264a19.805 19.805 0 0 1-2.367-7.264zM43.837 25.235c4.94 1.27.74 7.29-2.368 7.263a19.8 19.8 0 0 0 2.368-7.263z"/>
            <path fill="#ffe8be" fill-rule="evenodd" d="M30.733 11.361c20.523 0 12.525 32.446 0 32.446-11.83 0-20.523-32.446 0-32.446z"/>
            <path fill="#8a5c42" fill-rule="evenodd" d="M21.047 22.105a1.738 1.738 0 0 1-.414 2.676c-1.45 1.193-1.503 5.353-1.503 5.353-.56-.556-.547-3.534-1.761-5.255s-2.032-13.763 4.757-18.142a4.266 4.266 0 0 0-.933 3.6s4.716-6.763 12.54-6.568a5.029 5.029 0 0 0-2.487 3.26s6.84-2.822 12.54.535a13.576 13.576 0 0 0-4.145 1.947c2.768.076 5.443.59 7.46 2.384a3.412 3.412 0 0 0-2.176 4.38c.856 3.503.936 6.762.107 8.514-.829 1.752-1.22.621-1.739 4.295a1.609 1.609 0 0 1-.77 1.214c-.02.266.382-3.756-.655-4.827-1.036-1.07-.385-2.385.029-3.163 2.89-5.427-5.765-7.886-10.496-7.88-4.103.005-14 1.87-10.354 7.677z"/>
            <path fill="#434955" fill-rule="evenodd" d="M19.79 49.162c.03.038 10.418 13.483 22.63-.2-1.475 4.052-7.837 7.27-11.476 7.26-6.95-.02-10.796-5.6-11.154-7.06z"/>
            <path fill="#e6e6e6" fill-rule="evenodd" d="M36.336 61.323c-.41.072-.822.135-1.237.192v-8.937a.576.576 0 0 1 .618-.516.576.576 0 0 1 .619.516v8.745zm-9.82.166q-.622-.089-1.237-.2v-8.711a.576.576 0 0 1 .618-.516.576.576 0 0 1 .62.516z"/>
        <symbol/>
        <symbol id="girl-in-NY-hat">
           <path fill="#ffe8be" fill-rule="evenodd" d="M31.129 8.432c21.281 0 12.988 35.266 0 35.266-12.266 0-21.281-35.266 0-35.266z"/>
           <circle cx="30.9" cy="30.9" r="30.9" fill="#a9cf54"/>
           <path fill="#302e33" d="M19.012 21.716h24.504V48.29H19.013z"/>
           <path fill="#f9dca4" fill-rule="evenodd" d="m24.744 38.68 12.931.121v12.918l-12.931-.121V38.68z"/>
           <path fill-rule="evenodd" d="M37.677 38.778v3.58c0 .297-.002.113-.002.513a1.602 1.602 0 0 1-.112.838c-4.369 4.164-11.618 1.982-12.73-5.131z" opacity=".11"/>
           <path fill="#498bd9" fill-rule="evenodd" d="M52.797 52.701c-2.716-6.287-8.913-6.893-15.122-9.83 0 5.414-12.932 4.979-12.932-.264-5.568 2.52-13.63 3.72-16.026 9.801a30.896 30.896 0 0 0 44.08.293z"/>
           <path fill="#f9dca4" fill-rule="evenodd" d="M43.391 25.54c2.96 1.29.125 6.535-1.303 6.026-2.302-.822 1.164-3.584 1.303-6.027z"/>
           <path fill="#ffe8be" fill-rule="evenodd" d="M31.114 8.666c8.722 0 12.377 6.2 12.601 13.367.307 9.81-5.675 21.43-12.6 21.43-6.56 0-12.706-12.018-12.333-21.928.26-6.953 3.814-12.869 12.332-12.869z"/>
           <path fill="#464449" fill-rule="evenodd" d="M39.736 20.216s-5.163 17.76-25.4 11.838c5.053-2.753 4.488-6.772 4.131-11.838z"/>
           <path fill="#464449" fill-rule="evenodd" d="M33.665 20.548s2.932 9.395 13.035 10.118a11.655 11.655 0 0 1-2.868-3.36 4.54 4.54 0 0 0 2.838.308c-2.456-1.842-3.068-3.339-2.655-6.89s-10.35-.176-10.35-.176z"/>
           <ellipse cx="31.264" cy="23.77" fill="#58b0e0" rx="15.576" ry="3.607"/>
           <path fill="#2881bb" fill-rule="evenodd" d="M26.971 6.623h8.586a8.529 8.529 0 0 1 8.504 8.503v6.59H18.467v-6.59a8.529 8.529 0 0 1 8.504-8.503z"/>
           <path fill="#fff" fill-rule="evenodd" d="M26.405 13.19h2.025l1.468 2.923v-1.79a.937.937 0 0 0-.026-.288.222.222 0 0 0-.097-.12.53.53 0 0 0-.236-.034h-.244v-.691h2.066v.691h-.228a.563.563 0 0 0-.245.04.222.222 0 0 0-.102.107.974.974 0 0 0-.028.294v3.876h-1.035l-1.855-3.692v2.584a.89.89 0 0 0 .027.284.202.202 0 0 0 .096.097.587.587 0 0 0 .241.035h.24v.692h-2.067v-.691h.214a.645.645 0 0 0 .244-.031.224.224 0 0 0 .106-.106.517.517 0 0 0 .039-.226v-2.875a.623.623 0 0 0-.035-.243.238.238 0 0 0-.097-.112.435.435 0 0 0-.204-.034h-.267v-.69zm5.153 0h2.485v.691h-.186a.58.58 0 0 0-.247.03.102.102 0 0 0-.05.098.615.615 0 0 0 .116.28l.659 1.091.733-1.131a7.27 7.27 0 0 0 .108-.164.239.239 0 0 0 .014-.082.105.105 0 0 0-.041-.093.395.395 0 0 0-.194-.029h-.257v-.691h1.992v.691a.568.568 0 0 0-.617.338l-1.331 1.947v.894a.945.945 0 0 0 .03.308.202.202 0 0 0 .105.104.806.806 0 0 0 .291.034h.177v.692h-2.442v-.691h.131a.926.926 0 0 0 .326-.035.228.228 0 0 0 .11-.115.918.918 0 0 0 .036-.325v-.783l-1.33-2.03a.886.886 0 0 0-.278-.299.967.967 0 0 0-.34-.039z"/>
           <path fill="#e6e6e6" fill-rule="evenodd" d="m30.41 46.686 1.261.012v3.45H30.41v-3.462z"/>
           <path fill="#fff" d="m30.384 61.79.051-11.642 1.262.005-.051 11.642z" opacity=".33"/>
           <path fill="#e6e6e6" fill-rule="evenodd" d="M9.086 52.785a12.8 12.8 0 0 1 6.118-5.923c4.156-1.787 9.588-3.585 9.604-3.59l.32.804c-.015.005-5.457 1.79-9.588 3.566a12.647 12.647 0 0 0-5.848 5.728zM52.43 53.064a12.792 12.792 0 0 0-6.116-5.919c-4.156-1.787-8.773-3.31-8.788-3.314l-.392.777c.015.005 4.714 1.542 8.844 3.318a12.62 12.62 0 0 1 5.842 5.714l.375-.35z"/>
        </symbol>
        <symbol id="girl-with-glasses">
            <path fill="#ffe8be" fill-rule="evenodd" d="M31.129 8.432c21.281 0 12.987 35.266 0 35.266-12.266 0-21.281-35.266 0-35.266z"/>
            <circle cx="30.9" cy="30.9" r="30.9" fill="#58b0e0"/>
            <path fill="#60350a" fill-rule="evenodd" d="M45.487 19.987l-29.173.175s1.048 16.148-2.619 21.21h35.701c-.92-1.35-3.353-1.785-3.909-21.385z"/>
            <path fill="#d5e1ed" fill-rule="evenodd" d="M18.135 45.599l7.206-3.187 11.55-.3 7.42 3.897-5.357 11.215-7.613 4.088-7.875-4.35-5.331-11.363z"/>
            <path fill="#f9dca4" fill-rule="evenodd" d="M24.744 38.68l12.931.084v8.949l-12.931-.085V38.68z"/>
            <path fill-rule="evenodd" d="M37.677 38.778v3.58a9.168 9.168 0 0 1-.04 1.226 6.898 6.898 0 0 1-.313 1.327c-4.37 4.165-11.379.78-12.49-6.333z" opacity=".11"/>
            <path fill="#434955" fill-rule="evenodd" d="M52.797 52.701a30.896 30.896 0 0 1-44.08-.293l1.221-3.098 9.103-4.122c3.262 5.98 6.81 11.524 12.317 15.455A45.397 45.397 0 0 0 43.2 45.483l8.144 3.853z"/>
            <path fill="#f9dca4" fill-rule="evenodd" d="M19.11 24.183c-2.958 1.29-.442 7.41 1.42 7.383a30.842 30.842 0 01-1.42-7.383zM43.507 24.182c2.96 1.292.443 7.411-1.419 7.384a30.832 30.832 0 001.419-7.384z"/>
            <path fill="#ffe8be" fill-rule="evenodd" d="M31.114 8.666c8.722 0 12.377 6.2 12.601 13.367.307 9.81-5.675 21.43-12.6 21.43-6.56 0-12.706-12.018-12.333-21.928.26-6.953 3.814-12.869 12.332-12.869z"/>
            <path fill="#464449" fill-rule="evenodd" d="M33.399 24.983a7.536 7.536 0 0 1 5.223-.993h.005c5.154.63 5.234 2.232 4.733 2.601a2.885 2.885 0 0 0-.785 1.022 6.566 6.566 0 0 1-1.052 2.922 5.175 5.175 0 0 1-3.464 2.312c-.168.027-.34.048-.516.058a4.345 4.345 0 0 1-3.65-1.554 8.33 8.33 0 0 1-1.478-2.53v.003s-.797-1.636-2.072-.114a8.446 8.446 0 0 1-1.52 2.64 4.347 4.347 0 0 1-3.651 1.555 5.242 5.242 0 0 1-.516-.058 5.176 5.176 0 0 1-3.464-2.312 6.568 6.568 0 0 1-1.052-2.921 2.75 2.75 0 0 0-.77-1.023c-.5-.37-.425-1.973 4.729-2.603h.002a7.545 7.545 0 0 1 5.24 1.01l-.001-.001.003.002.215.131a3.93 3.93 0 0 0 3.842-.148l-.001.001zm-4.672.638a6.638 6.638 0 0 0-6.157-.253c-1.511.686-1.972 1.17-1.386 3.163a5.617 5.617 0 0 0 .712 1.532 4.204 4.204 0 0 0 3.326 1.995 3.536 3.536 0 0 0 2.966-1.272 7.597 7.597 0 0 0 1.36-2.37c.679-1.78.862-1.863-.82-2.795zm10.947-.45a6.727 6.727 0 0 0-5.886.565c-1.538.911-1.258 1.063-.578 2.79a7.476 7.476 0 0 0 1.316 2.26 3.536 3.536 0 0 0 2.967 1.272 4.228 4.228 0 0 0 .43-.048 4.34 4.34 0 0 0 2.896-1.947 5.593 5.593 0 0 0 .684-1.44c.702-2.25.076-2.751-1.828-3.451z"/>
            <path fill="#8a5c42" fill-rule="evenodd" d="M17.89 25.608c0-.638.984-.886 1.598 2.943a22.164 22.164 0 0 0 .956-4.813c1.162.225 2.278 2.848 1.927 5.148 3.166-.777 11.303-5.687 13.949-12.324 6.772 3.901 6.735 12.094 6.735 12.094s.358-1.9.558-3.516c.066-.538.293-.733.798-.213C48.073 17.343 42.3 5.75 31.297 5.57c-15.108-.246-17.03 16.114-13.406 20.039z"/>
            <path fill="#fff" fill-rule="evenodd" d="M24.765 42.431a14.125 14.125 0 0 0 6.463 5.236l-4.208 6.144-5.917-9.78z"/>
            <path fill="#fff" fill-rule="evenodd" d="M37.682 42.431a14.126 14.126 0 0 1-6.463 5.236l4.209 6.144 5.953-9.668z"/>
            <circle cx="31.223" cy="52.562" r=".839" fill="#434955"/>
            <circle cx="31.223" cy="56.291" r=".839" fill="#434955"/>
            <path fill="#464449" fill-rule="evenodd" d="M41.997 24.737c1.784.712 1.719 1.581 1.367 1.841a2.886 2.886 0 0 0-.785 1.022 6.618 6.618 0 0 1-.582 2.086v-4.949zm-21.469 4.479a6.619 6.619 0 0 1-.384-1.615 2.748 2.748 0 0 0-.77-1.023c-.337-.249-.413-1.06 1.154-1.754z"/>
        </symbol>
        <symbol id="man-in-hat">
            <circle cx="30.9" cy="30.9" r="30.9" fill="#9f82bb"/>
            <path fill="#f9dca4" fill-rule="evenodd" d="M23.255 38.68l15.907.121v12.918l-15.907-.121V38.68z"/>
            <path fill="#fff" fill-rule="evenodd" d="M53.478 51.993A30.814 30.814 0 0 1 30.9 61.8a31.547 31.547 0 0 1-9.23-1.402 31.124 31.124 0 0 1-13.626-8.704l1.283-3.1 13.925-6.212c0 4.535 1.519 7.06 7.648 7.153 7.57.113 8.261-2.515 8.261-7.19l12.79 6.282z"/>
            <path fill-rule="evenodd" d="M39.166 38.778v3.58c0 .297-.004.802-.029 1.273-4.155 5.56-14.31 2.547-15.771-5.053z" opacity=".11"/>
            <path fill="#ffe8be" fill-rule="evenodd" d="M31.129 8.432c21.281 0 12.988 35.266 0 35.266-12.266 0-21.281-35.266 0-35.266z"/>
            <path fill="#f9dca4" fill-rule="evenodd" d="M18.365 24.045c-3.07 1.34-.46 7.687 1.472 7.658a31.978 31.978 0 01-1.472-7.658zM44.14 24.045c3.07 1.339.46 7.687-1.471 7.658a31.997 31.997 0 001.471-7.658z"/>
            <path fill="#8a5c42" fill-rule="evenodd" d="M22.035 35.1a1.879 1.879 0 0 1-.069-.504v-.005a1.422 1.422 0 0 1 1.22-1.361 1.046 1.046 0 0 0 .907 1.745 4.055 4.055 0 0 0 .981-.27c.293-.134.607-.289.943-.481a13.439 13.439 0 0 0 1.426-1.014 3.04 3.04 0 0 1 1.91-.787 2.015 2.015 0 0 1 1.293.466 2.785 2.785 0 0 1 .612.654 2.77 2.77 0 0 1 .612-.654 2.015 2.015 0 0 1 1.292-.466 3.039 3.039 0 0 1 1.911.787 13.42 13.42 0 0 0 1.426 1.014c.336.192.65.347.943.48a4.054 4.054 0 0 0 .981.271 1.046 1.046 0 0 0 .906-1.745 1.422 1.422 0 0 1 1.22 1.36h.002l-.001.006a1.879 1.879 0 0 1-.069.504c-.78 3.631-7.373 2.769-9.223.536-1.85 2.233-8.444 3.095-9.223-.536z"/>
            <path fill="#464449" fill-rule="evenodd" d="M26.431 5.74h9.504a8.529 8.529 0 0 1 8.504 8.504v6.59H17.927v-6.59a8.529 8.529 0 0 1 8.504-8.504z"/>
            <path fill="#333" fill-rule="evenodd" d="M12.684 19.828h36.998a1.372 1.372 0 0 1 1.369 1.368 1.372 1.372 0 0 1-1.369 1.37H12.684a1.372 1.372 0 0 1-1.368-1.37 1.372 1.372 0 0 1 1.368-1.368z"/>
            <path fill="#677079" d="M17.927 15.858H44.44v3.97H17.927z"/>
            <path fill="#d5e1ed" fill-rule="evenodd" d="M29.42 48.273v13.49a29.098 29.098 0 003.528-.03v-13.46zM23.255 42.176l6.164 7.281-8.837 2.918-.023-9.023 2.696-1.176zM39.192 42.176l-6.164 7.281 8.838 2.918.022-9.023-2.696-1.176z"/>
            <path fill="#464449" fill-rule="evenodd" d="M24.018 45.933l5.09 1.98a2.581 2.581 0 0 1 4.05.04l5.19-2.02v7.203l-5.193-2.016a2.581 2.581 0 0 1-4.044.039l-5.093 1.977z"/>
            <path fill="#8a5c42" fill-rule="evenodd" d="M15.115 46.012l3.304-1.474v14.638a34.906 34.906 0 01-3.304-1.706zM46.933 46.163l-3.304-1.625v14.527a31.278 31.278 0 003.304-1.745z"/>
        </symbol>
        <symbol id="obi-wan-kenobi">
            <circle cx="30.9" cy="30.9" r="30.9" fill="#58b0e0"/>
            <path fill="#302e33" fill-rule="evenodd" d="m23.255 38.68 15.907.146v15.602l-15.907-.147V38.68z"/>
            <path fill="#857a6e" fill-rule="evenodd" d="M53.478 51.993A30.813 30.813 0 0 1 30.9 61.8a31.225 31.225 0 0 1-3.837-.237A34.072 34.072 0 0 1 15.9 57.919a31.036 31.036 0 0 1-7.857-6.225l1.284-3.1 13.925-6.212c0 4.535 1.31 10.02 7.439 10.113 7.57.113 8.47-5.475 8.47-10.15l12.79 6.282z"/>
            <path fill="#302e33" fill-rule="evenodd" d="M31.462 52.495c-3.342-5.472-9.388-6.287-11.359-6.6-5.42-.86-14.56-4.28-8.564-9.72 10.765-9.764 6.898-22.032 19.513-22.032 13.47 0 8.873 12.268 19.638 22.032 5.997 5.44-3.143 8.86-8.565 9.72a14.292 14.292 0 0 0-10.663 6.6z"/>
            <path fill-rule="evenodd" d="M39.964 42.252c-1.125 4.01-4.008 6.397-8.598 6.207-3.94-.163-7.297-2.397-8.11-6.204z" opacity=".18"/>
            <path fill="#ffe8be" fill-rule="evenodd" d="M31.129 8.432c21.281 0 12.987 35.266 0 35.266-12.267 0-21.281-35.266 0-35.266z"/>
            <path fill="#f9dca4" fill-rule="evenodd" d="M18.365 24.045c-3.07 1.34-.46 7.687 1.472 7.658a31.973 31.973 0 0 1-1.472-7.658zM44.14 24.045c3.07 1.339.46 7.687-1.471 7.658a31.993 31.993 0 0 0 1.471-7.658z"/>
            <path fill="#969696" fill-rule="evenodd" d="M19.113 25.706c-2.83-4.958-2.783-9.375-1.362-11.817 2.048-3.52 4.922-3.688 5.315-4.517 4.025-8.479 24.839-2.048 23.97 11.09a14.798 14.798 0 0 0-1.522-2.486s-.075 4.991-1.437 6.957c-1.64.464-15.061.239-20.053-9.948-4.006 2.268-5.06 7.015-4.91 10.72z"/>
            <path fill="#969696" fill-rule="evenodd" d="M31.15 46.543c-2.66.022-15.617-4.022-12.61-26.045 0 0 .65 9.916 2.775 12.788 1.382 1.868 2.625 2.57 3.82.746 1.248-1.9 3.946-3.473 6.038-1.677 1.737-1.85 4.848-.212 6.084 1.677 1.195 1.823 2.44 1.123 3.822-.746 2.125-2.872 2.586-12.456 2.586-12.456 3.456 23.6-9.855 25.735-12.515 25.713z"/>
            <path fill="#ffe8be" fill-rule="evenodd" d="M26.527 36.802a7.118 7.118 0 0 1 4.568-2.096 7.29 7.29 0 0 1 4.503 2.099c-.788.525-5.874 1.737-9.071-.003z"/>
            <path fill="#7d7062" fill-rule="evenodd" d="M26.611 51.297a29.35 29.35 0 0 0-8.171-3.501c-4.778-.758-13.423-1.518-11.271-10.086C12.023 18.38 18.85 3.688 31.457 3.87c12.836.184 19.09 15.8 23.84 33.865 1.904 7.238-6.79 9.313-11.508 10.06A21.129 21.129 0 0 0 36 51.14c-6.963 4.765-1.812 4.7-9.389.158zm4.851 1.198a14.292 14.292 0 0 1 10.663-6.6c5.422-.86 14.562-4.28 8.565-9.72-10.765-9.764-6.167-22.032-19.638-22.032-12.615 0-8.748 12.268-19.513 22.032-5.997 5.44 3.143 8.86 8.564 9.72 1.97.313 8.017 1.127 11.36 6.6z"/>
            <path fill="#302e33" fill-rule="evenodd" d="M24.202 50.213s5.988 3.256 7.588 7.992c1.61-5.121 7.627-8.327 7.627-8.327S33.07 52.33 31.7 55.534c-.973-1.722-2.707-3.4-7.497-5.321z"/>
        </symbol>
        <symbol id="old-man-with-glasses">
            <circle cx="30.9" cy="30.9" r="30.9" fill="#e9573e"/>
            <path fill="#f9dca4" fill-rule="evenodd" d="m23.366 38.578 15.796.223v12.918l-15.907-.121.111-13.02z"/>
            <path fill="#58b0e0" fill-rule="evenodd" d="M53.478 51.993A30.814 30.814 0 0 1 30.9 61.8a31.226 31.226 0 0 1-3.837-.237A34.069 34.069 0 0 1 15.9 57.919a31.032 31.032 0 0 1-7.856-6.225l1.283-3.1 13.925-6.212c.625 3.723 7.814 8.175 7.814 8.175s7.22-3.412 8.096-8.211l12.79 6.281z"/>
            <path fill-rule="evenodd" d="M39.165 38.778v3.58c-.043.139-.074.324-.135.546a6.177 6.177 0 0 1-.243.687c-.17.409-1.345.063-1.568.415-5.375 4.164-11.988.868-13.855-5.245z" opacity=".11"/>
            <path fill="#ffe8be" fill-rule="evenodd" d="M31.129 8.432c21.281 0 12.987 35.266 0 35.266-12.266 0-21.281-35.266 0-35.266z"/>
            <path fill="#f9dca4" fill-rule="evenodd" d="M18.365 24.045c-3.07 1.34-.46 7.687 1.472 7.658a31.974 31.974 0 0 1-1.472-7.658zM44.14 24.045c3.07 1.339.46 7.687-1.471 7.658a31.992 31.992 0 0 0 1.471-7.658z"/>
            <path fill="#969696" fill-rule="evenodd" d="M18.7 26.997s-3.28-1.756-2.342-8.006 6.113-9.439 8.025-8.97A31.11 31.11 0 0 0 18.7 26.998zM43.84 26.997s3.28-1.756 2.343-8.006-6.122-9.3-8.034-8.83a30.517 30.517 0 0 1 5.692 16.836z"/>
            <path fill="#434955" fill-rule="evenodd" d="m23.255 41.241 7.811 9.316-6.312 3.553-4.828-10.591 3.329-2.278zM39.162 41.421l-8.096 9.136 6.524 3.553 4.782-10.719-3.21-1.97z"/>
            <path fill="#969696" fill-rule="evenodd" d="M31.128 35.672c-1.61 2.027-7.667 2.777-7.885-.859 1.412.65 2.595.497 4.694-1.183 2.1-1.679 3.21.305 3.21.305s1.183-1.984 3.283-.305c2.099 1.68 3.282 1.832 4.694 1.183-.218 3.636-6.386 2.886-7.996.859z"/>
            <circle cx="26.199" cy="27.557" r="3.187" fill="#e6e6e6"/>
            <path fill="#434955" fill-rule="evenodd" d="M36.293 30.297c1.682-.548 1.382-.346 1.048-.208-1.418.208-1.773.133-2.096 0a2.746 2.746 0 0 0 1.048.208zm1.047-5.272h-2.094a2.734 2.734 0 0 1 1.047-.207 2.734 2.734 0 0 0-1.047.208h2.094zm6.478 1.21L40 26.998l-.11.025-.02-.11a3.62 3.62 0 0 0-.355-1.037 3.657 3.657 0 0 0-.653-.888l-.077-.076a3.65 3.65 0 0 0-1.103-.715 3.656 3.656 0 0 0-2.78 0 3.637 3.637 0 0 0-2.212 2.86l-.013.093h-2.865l-.012-.093a3.607 3.607 0 0 0-.346-1.116 3.653 3.653 0 0 0-.686-.953l-.076-.076a3.644 3.644 0 0 0-3.884-.715 3.637 3.637 0 0 0-2.187 2.705l-.02.111-.11-.025-3.773-.758-.038.757 3.878 1.19.06.02.012.06a3.626 3.626 0 0 0 .932 1.805l.066.066a3.658 3.658 0 0 0 1.182.79 3.64 3.64 0 0 0 2.776.001 3.657 3.657 0 0 0 1.181-.79l.001-.001.001-.001a3.626 3.626 0 0 0 1.023-2.018l.014-.092h2.878l.014.092a3.608 3.608 0 0 0 .348 1.09 3.652 3.652 0 0 0 .608.86l.068.069a3.657 3.657 0 0 0 1.182.79 3.64 3.64 0 0 0 2.776.001 3.657 3.657 0 0 0 1.18-.79l.002-.001v-.001a3.663 3.663 0 0 0 .636-.856 3.61 3.61 0 0 0 .359-.997l.012-.061.06-.02 3.91-1.195-.022-.761zm-16.571-1.21a2.745 2.745 0 0 1 .857.564h.002l.032.031a2.74 2.74 0 0 1 0 3.874l-.002.002a2.74 2.74 0 0 1-3.873 0l-.032-.032v-.002a2.745 2.745 0 0 1-.563-.858 2.741 2.741 0 0 1 0-2.094 2.743 2.743 0 0 1 1.484-1.484 2.742 2.742 0 0 1 2.095 0zm10.907.672a2.651 2.651 0 0 0-.492-.387 2.633 2.633 0 0 0-2.658-.047 2.656 2.656 0 0 0-.492.357 2.48 2.48 0 0 0-.247.26 2.64 2.64 0 0 0-.387.63 2.511 2.511 0 0 0-.098.262 2.62 2.62 0 0 0-.119.785c0 .086.005.172.013.257a2.615 2.615 0 0 0 .204.79 2.534 2.534 0 0 0 .118.239 2.64 2.64 0 0 0 .436.575v.002l.043.042.02.018.017.016a2.641 2.641 0 0 0 .26.21 2.598 2.598 0 0 0 .69.35 2.642 2.642 0 0 0 2.691-.636l.003-.002.05-.052a2.636 2.636 0 0 0-.05-3.67z"/>
            <circle cx="36.293" cy="27.557" r="2.755" fill="#e6e6e6"/>
            <circle cx="26.199" cy="27.557" r="2.755" fill="#e6e6e6"/>
        </symbol>
        <!-- new  -->
        <symbol id="man-with-glasses">
            <path fill="none" d="M53.456 52.022A30.766 30.766 0 0 1 30.9 61.829a31.163 31.163 0 0 1-3.833-.237 34.01 34.01 0 0 1-11.15-3.644 31.007 31.007 0 0 1-7.849-6.225l1.282-3.1 13.91-6.212c.625 3.723 7.806 8.175 7.806 8.175s7.213-3.412 8.087-8.211l12.777 6.281z" clip-rule="evenodd"/>
            <path fill="none" d="M14.112 46.496l6.814-3.042 10.209 13.978 10.328-13.938 5.949 2.831v20.033h-33.3V46.496z" clip-rule="evenodd"/>
            <circle cx="30.9" cy="30.9" r="30.9" fill="#3dbc93"/>
            <path fill="#f9dca4" fill-rule="evenodd" d="M23.255 38.68l15.907.121v12.918l-15.907-.121V38.68z"/>
            <path fill-rule="evenodd" d="M39.165 38.778v3.58a7.783 7.783 0 0 1-.098 1.18 6.527 6.527 0 0 1-.395 1.405c-5.374 4.164-13.939.748-15.306-6.365z" opacity=".11"/>
            <path fill="#ffe8be" fill-rule="evenodd" d="M31.129 8.432c21.281 0 12.987 35.266 0 35.266-12.266 0-21.281-35.266 0-35.266z"/>
            <path fill="#f9dca4" fill-rule="evenodd" d="M18.365 24.046c-3.07 1.339-.46 7.686 1.472 7.658a31.972 31.972 0 01-1.472-7.659zM44.135 24.046c3.07 1.339.465 7.686-1.466 7.657a31.978 31.978 0 001.466-7.657z"/>
            <path fill="#ecbe6a" fill-rule="evenodd" d="M44.123 24.17s7.96-11.785-2.636-16.334a11.881 11.881 0 0 0-12.87-5.22C22.775 3.805 20.604 6.7 20.604 6.7s-5.53 5.014-10.44 5.117a9.774 9.774 0 0 0 6.28 1.758c-.672 1.68-1.965 7.21 1.989 10.854 4.368-2.868 8.012-8.477 8.012-8.477s.982 3.257.207 4.86a18.879 18.879 0 0 0 7.922-3.531c2.542-2.036 3.893-4.297 5.31-4.326 3.256-.069 4.213 9.74 4.24 11.216z"/>
            <path fill="#498bd9" fill-rule="evenodd" d="M53.456 52.022A30.766 30.766 0 0 1 30.9 61.829a31.163 31.163 0 0 1-3.833-.237 34.01 34.01 0 0 1-11.15-3.644 31.007 31.007 0 0 1-7.849-6.225l1.282-3.1 13.91-6.212c.625 3.723 7.806 8.175 7.806 8.175s7.213-3.412 8.087-8.211l12.777 6.281z"/>
            <path fill="#545f69" fill-rule="evenodd" d="M14.112 46.496l6.814-3.042 10.209 13.978 10.328-13.938 5.949 2.831v20.033h-33.3V46.496z"/>
            <path fill="#434955" fill-rule="evenodd" d="M37.79 42.881h.732v21.382h-.732V42.881zm-14.775 0h.731v21.382h-.73V42.881zm-2.981 0h.731v21.382h-.731V42.881zm-2.944 0h.731v21.382h-.73V42.881zm-2.981 0h.731v21.382h-.731V42.881zm20.708 0h.731v21.382h-.731V42.881zm-2.981 0h.731v21.382h-.731V42.881zm-2.944 0h.731v21.382h-.731V42.881zm-2.981 0h.731v21.382h-.731V42.881zm20.785 0h.732v21.382h-.732V42.881zm-2.98 0h.73v21.382h-.73V42.881zm-2.944 0h.73v21.382h-.73z"/>
            <path fill="#58b0e0" fill-rule="evenodd" d="M23.265 41.27l7.802 9.316-6.305 3.553-4.823-10.591 3.326-2.278zM39.155 41.45l-8.088 9.136 6.518 3.553 4.777-10.719-3.207-1.97z"/>
            <path fill="#464449" fill-rule="evenodd" d="M21.637 23.157h6.416a1.58 1.58 0 011.119.464v.002a1.579 1.579 0 01.464 1.117v2.893a1.585 1.585 0 01-1.583 1.583h-6.416a1.578 1.578 0 01-1.116-.465h-.002a1.58 1.58 0 01-.464-1.118V24.74a1.579 1.579 0 01.464-1.117l.002-.002a1.578 1.578 0 011.116-.464zm6.416.85h-6.416a.735.735 0 00-.517.214l-.001.002a.735.735 0 00-.214.517v2.893a.73.73 0 00.215.517.735.735 0 00.517.215h6.416a.735.735 0 00.732-.732V24.74a.734.734 0 00-.214-.518.731.731 0 00-.518-.215zM34.548 23.157h6.416a1.58 1.58 0 011.118.464v.002a1.579 1.579 0 01.465 1.117v2.893a1.585 1.585 0 01-1.583 1.583h-6.416a1.58 1.58 0 01-1.117-.465l-.001-.002a1.58 1.58 0 01-.465-1.116V24.74a1.58 1.58 0 01.465-1.117l.002-.001a1.58 1.58 0 011.116-.465zm6.416.85h-6.416a.73.73 0 00-.517.214l-.001.002a.729.729 0 00-.214.517v2.893a.73.73 0 00.214.517l.001.001a.73.73 0 00.517.214h6.416a.735.735 0 00.732-.732V24.74a.734.734 0 00-.214-.518h-.001a.731.731 0 00-.517-.215z"/>
            <path fill="#464449" d="M29.415 24.506h3.845v.876h-3.845z"/>
        </symbol>
    </defs>
</svg>